<svg xmlns="http://www.w3.org/2000/svg" viewBox="0 0 36 36"><path fill="#EFEFEF" d="M34.904 20.355c-3.782-5.791-3.38-11.727-5.203-14.518-1.823-2.791-7.256-7.603-20.093.782s-9.572 17.5-7.566 20.569c9.388 14.372 39.561 3.423 32.862-6.833z"/><path fill="#A4AFC1" d="M14.125 30.636h2v1h-2zM19.875 30.636h2v1h-2zM17.375 33.136h1v2h-1zM18 4.735c-.827 0-1.5-.673-1.5-1.5s.673-1.5 1.5-1.5 1.5.673 1.5 1.5-.673 1.5-1.5 1.5zm0-2a.5.5 0 1 0 .002 1.002A.5.5 0 0 0 18 2.735z"/><path fill="#F3F3F1" d="M18.002 6.75v.079C12.475 6.829 8 11.304 8 16.791s4.475 9.959 10.002 9.959C23.52 26.75 28 22.278 28 16.739c0-5.521-4.48-9.989-9.998-9.989z"/><path fill="#2FDF84" d="M18.001 13.75v.02a2.498 2.498 0 0 0-2.501 2.491 2.497 2.497 0 0 0 2.501 2.49 2.5 2.5 0 0 0 2.499-2.503 2.498 2.498 0 0 0-2.499-2.498zm0 5.5c-1.379 0-2.501 1.134-2.501 2.525 0 7.475 2.501 7.475 2.501 7.475s2.499 0 2.499-7.475c0-1.391-1.12-2.525-2.499-2.525z"/><path fill="#00B871" d="M17.75 16.26c0-.975.57-1.813 1.393-2.222A2.473 2.473 0 0 0 18 13.75v.02c-1.382 0-2.5 1.119-2.5 2.49s1.119 2.49 2.5 2.49c.406 0 .785-.106 1.124-.279a2.48 2.48 0 0 1-1.374-2.211z"/><path fill="#D5DBE1" d="M15.818 25.706c-3.298-1.63-5.568-5.011-5.568-8.915 0-5.223 4.057-9.52 9.214-9.922a9.92 9.92 0 0 0-1.462-.119v.079C12.475 6.829 8 11.304 8 16.791c0 4.809 3.438 8.838 8.009 9.76a11.37 11.37 0 0 1-.191-.845z"/><path fill="#00B871" d="M17.75 21.775c0-.981.563-1.825 1.375-2.243A2.445 2.445 0 0 0 18 19.249c-1.379 0-2.5 1.134-2.5 2.525 0 7.475 2.5 7.475 2.5 7.475s.544-.01 1.125-.769c-.664-.867-1.375-2.717-1.375-6.705z"/><path d="M18 19.5a3.248 3.248 0 0 1-3.25-3.239 3.249 3.249 0 0 1 3.063-3.236A.727.727 0 0 1 18 13a3.252 3.252 0 0 1 3.25 3.247A3.255 3.255 0 0 1 18 19.5zm.144-4.994a.748.748 0 0 1-.144.014c-.965 0-1.75.781-1.75 1.741 0 .959.785 1.739 1.75 1.739s1.75-.786 1.75-1.753a1.75 1.75 0 0 0-1.606-1.741z"/><path d="M18 30c-.543 0-3.25-.396-3.25-8.225 0-1.806 1.458-3.275 3.25-3.275s3.25 1.47 3.25 3.275C21.25 29.604 18.543 30 18 30zm0-10c-.965 0-1.75.797-1.75 1.775 0 5.646 1.453 6.577 1.75 6.708.298-.131 1.75-1.062 1.75-6.708 0-.978-.785-1.775-1.75-1.775z"/><path d="m22.601 26.458-.642-1.355a9.286 9.286 0 0 0 5.291-8.353c0-5.101-4.149-9.25-9.25-9.25s-9.25 4.149-9.25 9.25a9.287 9.287 0 0 0 5.291 8.353l-.642 1.355A10.792 10.792 0 0 1 7.25 16.75C7.25 10.822 12.072 6 18 6s10.75 4.822 10.75 10.75c0 4.129-2.414 7.939-6.149 9.708z"/><path d="m22.936 21.345-1.092-1.029a5.17 5.17 0 0 0 1.406-3.565c0-2.895-2.355-5.25-5.25-5.25s-5.25 2.355-5.25 5.25c0 1.338.499 2.604 1.406 3.565l-1.092 1.029a6.673 6.673 0 0 1-1.814-4.595c0-3.722 3.028-6.75 6.75-6.75s6.75 3.028 6.75 6.75a6.673 6.673 0 0 1-1.814 4.595z"/></svg>